<svg xmlns="http://www.w3.org/2000/svg" width="1024" height="1024" viewBox="0 0 1024 1024" version="1.1"><path d="M 500.698 137.041 C 493.563 138.822, 485.840 143.218, 479.614 149.043 C 469.691 158.325, 465.030 168.736, 465.011 181.663 C 465 188.826, 465 188.826, 457.750 192.765 C 449.817 197.074, 383.036 234.320, 357.500 248.677 C 348.700 253.625, 339.025 259.043, 336 260.717 C 332.975 262.391, 326.675 265.890, 322 268.494 C 317.325 271.097, 309 275.704, 303.500 278.731 C 298 281.757, 288.550 287.032, 282.500 290.452 C 258.336 304.110, 259.610 303.650, 254.157 300.682 C 240.392 293.190, 221.605 293.192, 207.837 300.685 C 200.945 304.436, 191.518 314.663, 188.014 322.188 C 179.428 340.632, 182.852 361.554, 196.768 375.681 C 199.921 378.882, 205.087 382.850, 208.248 384.500 C 213.995 387.500, 213.995 387.500, 214.020 538 C 214.043 682.179, 214.121 688.668, 215.890 692.500 C 218.734 698.662, 217.904 698.082, 261 723.991 C 268.975 728.786, 285.850 739, 298.500 746.689 C 311.150 754.379, 339.500 771.614, 361.500 784.990 C 465.328 848.115, 455.896 842.913, 463.040 840.989 C 474.887 837.799, 479.354 823.517, 471.445 814.117 C 470.068 812.481, 461.868 806.902, 453.221 801.720 C 444.575 796.537, 415.450 778.884, 388.500 762.491 C 361.550 746.099, 331.850 728.097, 322.500 722.489 C 313.150 716.880, 294.925 705.869, 282 698.019 C 269.075 690.169, 255.912 682.207, 252.750 680.325 C 247 676.904, 247 676.904, 247 532.472 C 247 388.041, 247 388.041, 251.250 385.890 C 253.588 384.707, 256.694 382.898, 258.154 381.869 C 259.614 380.841, 261.327 380, 261.961 380 C 263.081 380, 281.093 389.589, 323 412.496 C 375.720 441.313, 399.208 454.210, 420 465.760 C 447.823 481.216, 447.847 481.229, 462.503 489.252 C 469.101 492.865, 479.225 498.463, 485 501.693 C 495.500 507.567, 495.500 507.567, 496 686.111 C 496.500 864.656, 496.500 864.656, 499.302 868.329 C 503.322 873.600, 507.170 875.304, 513.910 874.797 C 519.257 874.394, 523.949 871.704, 622 812.823 C 758.627 730.776, 788.001 713.070, 791.154 710.860 C 792.814 709.697, 795.543 709, 798.436 709 C 808.544 709, 821.914 702.338, 830.116 693.215 C 842.044 679.949, 845.353 659.784, 838.438 642.500 C 834.900 633.656, 824.553 622.774, 815.750 618.641 C 810 615.941, 810 615.941, 810 474.705 C 810 339.156, 809.925 333.330, 808.149 330.017 C 805.357 324.811, 801.652 322.495, 796.177 322.531 C 792.078 322.558, 788.906 324.027, 770.500 334.422 C 758.950 340.945, 743.875 349.448, 737 353.318 C 730.125 357.187, 718.425 363.809, 711 368.032 C 703.575 372.255, 695.025 377.077, 692 378.749 C 688.975 380.420, 671.425 390.206, 653 400.496 C 508.713 481.076, 512.148 479.252, 508.679 477.140 C 506.931 476.075, 494.700 469.243, 481.500 461.957 C 406.730 420.689, 344.622 386.510, 308.500 366.755 C 274.593 348.211, 278.110 350.627, 278.669 346.263 C 278.934 344.193, 278.731 339.881, 278.216 336.681 C 277.352 331.305, 277.442 330.764, 279.391 329.581 C 280.551 328.876, 289.600 323.790, 299.500 318.278 C 309.400 312.767, 333.025 299.576, 352 288.965 C 370.975 278.355, 403.825 260.015, 425 248.209 C 446.175 236.404, 467.072 224.720, 471.438 222.246 C 476.453 219.404, 479.794 218.070, 480.511 218.624 C 490.690 226.481, 500.430 230, 512 230 C 521.916 230, 530.798 227.310, 538.350 222.020 C 541.507 219.809, 544.254 218, 544.457 218 C 544.659 218, 554.201 223.230, 565.662 229.622 C 577.123 236.015, 592.800 244.723, 600.500 248.973 C 608.200 253.224, 636.100 268.750, 662.500 283.476 C 728.845 320.482, 734.118 323.393, 737.297 324.780 C 741.394 326.567, 745.797 326.276, 750.718 323.895 C 758.488 320.133, 761.109 310.988, 756.905 302.305 C 754.385 297.098, 758.341 299.499, 688.500 260.791 C 673.650 252.561, 655.200 242.317, 647.500 238.027 C 627.052 226.633, 573.596 196.904, 565.750 192.563 C 559 188.828, 559 188.828, 559 182.519 C 559 164.647, 545.745 145.319, 529.042 138.837 C 522.784 136.409, 507.192 135.421, 500.698 137.041 M 505.500 164.458 C 495.554 168.088, 489.770 180.068, 493.326 189.670 C 496.164 197.332, 503.434 202.286, 511.732 202.212 C 518.570 202.150, 523.646 199.530, 527.500 194.075 C 530.116 190.371, 530.500 188.966, 530.500 183.091 C 530.500 177.415, 530.067 175.699, 527.749 172.197 C 523.027 165.061, 513.206 161.645, 505.500 164.458 M 226.144 323.277 C 219.957 324.531, 213.689 330.960, 212.069 337.714 C 209.106 350.063, 218.484 362.040, 231.066 361.978 C 244.038 361.914, 253.409 349.662, 250.045 337.166 C 248.904 332.929, 244.275 326.753, 240.877 324.934 C 237.560 323.159, 230.592 322.375, 226.144 323.277 M 758 379.860 C 742.055 388.819, 646.894 441.663, 629 451.495 C 602.174 466.235, 530.282 506.413, 529.250 507.241 C 528.259 508.037, 528 541.644, 528 669.229 C 528 813.361, 528.160 830.152, 529.531 829.627 C 531.853 828.735, 755.765 694.434, 757.346 692.984 C 757.811 692.557, 756.368 689.184, 754.138 685.487 C 740.519 662.906, 747.922 634.664, 771.232 620.276 C 777 616.716, 777 616.716, 777 493.358 C 777 425.511, 776.663 370.006, 776.250 370.014 C 775.837 370.021, 767.625 374.452, 758 379.860 M 786.500 643.659 C 781.209 646.443, 777.976 650.275, 776.430 655.593 C 771.540 672.415, 788.044 686.482, 803.750 678.879 C 811.399 675.176, 815.371 666.121, 813.567 656.503 C 812.753 652.167, 806.816 645.245, 802.282 643.347 C 797.994 641.552, 790.212 641.706, 786.500 643.659" stroke="none" fill="#24324b" fill-rule="evenodd"/><path d="M 0 512.001 C 0 1024.002, 0 1024.002, 512.250 1023.751 C 1024.500 1023.500, 1024.500 1023.500, 1024.751 511.750 C 1025.002 0, 1025.002 0, 512.501 0 C 0 0, 0 0, 0 512.001 M 0.496 512.500 C 0.496 794.100, 0.610 909.151, 0.750 768.168 C 0.890 627.186, 0.890 396.786, 0.750 256.168 C 0.610 115.551, 0.496 230.900, 0.496 512.500 M 500.698 137.041 C 493.563 138.822, 485.840 143.218, 479.614 149.043 C 469.691 158.325, 465.030 168.736, 465.011 181.663 C 465 188.826, 465 188.826, 457.750 192.765 C 449.817 197.074, 383.036 234.320, 357.500 248.677 C 348.700 253.625, 339.025 259.043, 336 260.717 C 332.975 262.391, 326.675 265.890, 322 268.494 C 317.325 271.097, 309 275.704, 303.500 278.731 C 298 281.757, 288.550 287.032, 282.500 290.452 C 258.336 304.110, 259.610 303.650, 254.157 300.682 C 240.392 293.190, 221.605 293.192, 207.837 300.685 C 200.945 304.436, 191.518 314.663, 188.014 322.188 C 179.428 340.632, 182.852 361.554, 196.768 375.681 C 199.921 378.882, 205.087 382.850, 208.248 384.500 C 213.995 387.500, 213.995 387.500, 214.020 538 C 214.043 682.179, 214.121 688.668, 215.890 692.500 C 218.734 698.662, 217.904 698.082, 261 723.991 C 268.975 728.786, 285.850 739, 298.500 746.689 C 311.150 754.379, 339.500 771.614, 361.500 784.990 C 465.328 848.115, 455.896 842.913, 463.040 840.989 C 474.887 837.799, 479.354 823.517, 471.445 814.117 C 470.068 812.481, 461.868 806.902, 453.221 801.720 C 444.575 796.537, 415.450 778.884, 388.500 762.491 C 361.550 746.099, 331.850 728.097, 322.500 722.489 C 313.150 716.880, 294.925 705.869, 282 698.019 C 269.075 690.169, 255.912 682.207, 252.750 680.325 C 247 676.904, 247 676.904, 247 532.472 C 247 388.041, 247 388.041, 251.250 385.890 C 253.588 384.707, 256.694 382.898, 258.154 381.869 C 259.614 380.841, 261.327 380, 261.961 380 C 263.081 380, 281.093 389.589, 323 412.496 C 375.720 441.313, 399.208 454.210, 420 465.760 C 447.823 481.216, 447.847 481.229, 462.503 489.252 C 469.101 492.865, 479.225 498.463, 485 501.693 C 495.500 507.567, 495.500 507.567, 496 686.111 C 496.500 864.656, 496.500 864.656, 499.302 868.329 C 503.322 873.600, 507.170 875.304, 513.910 874.797 C 519.257 874.394, 523.949 871.704, 622 812.823 C 758.627 730.776, 788.001 713.070, 791.154 710.860 C 792.814 709.697, 795.543 709, 798.436 709 C 808.544 709, 821.914 702.338, 830.116 693.215 C 842.044 679.949, 845.353 659.784, 838.438 642.500 C 834.900 633.656, 824.553 622.774, 815.750 618.641 C 810 615.941, 810 615.941, 810 474.705 C 810 339.156, 809.925 333.330, 808.149 330.017 C 805.357 324.811, 801.652 322.495, 796.177 322.531 C 792.078 322.558, 788.906 324.027, 770.500 334.422 C 758.950 340.945, 743.875 349.448, 737 353.318 C 730.125 357.187, 718.425 363.809, 711 368.032 C 703.575 372.255, 695.025 377.077, 692 378.749 C 688.975 380.420, 671.425 390.206, 653 400.496 C 508.713 481.076, 512.148 479.252, 508.679 477.140 C 506.931 476.075, 494.700 469.243, 481.500 461.957 C 406.730 420.689, 344.622 386.510, 308.500 366.755 C 274.593 348.211, 278.110 350.627, 278.669 346.263 C 278.934 344.193, 278.731 339.881, 278.216 336.681 C 277.352 331.305, 277.442 330.764, 279.391 329.581 C 280.551 328.876, 289.600 323.790, 299.500 318.278 C 309.400 312.767, 333.025 299.576, 352 288.965 C 370.975 278.355, 403.825 260.015, 425 248.209 C 446.175 236.404, 467.072 224.720, 471.438 222.246 C 476.453 219.404, 479.794 218.070, 480.511 218.624 C 490.690 226.481, 500.430 230, 512 230 C 521.916 230, 530.798 227.310, 538.350 222.020 C 541.507 219.809, 544.254 218, 544.457 218 C 544.659 218, 554.201 223.230, 565.662 229.622 C 577.123 236.015, 592.800 244.723, 600.500 248.973 C 608.200 253.224, 636.100 268.750, 662.500 283.476 C 728.845 320.482, 734.118 323.393, 737.297 324.780 C 741.394 326.567, 745.797 326.276, 750.718 323.895 C 758.488 320.133, 761.109 310.988, 756.905 302.305 C 754.385 297.098, 758.341 299.499, 688.500 260.791 C 673.650 252.561, 655.200 242.317, 647.500 238.027 C 627.052 226.633, 573.596 196.904, 565.750 192.563 C 559 188.828, 559 188.828, 559 182.519 C 559 164.647, 545.745 145.319, 529.042 138.837 C 522.784 136.409, 507.192 135.421, 500.698 137.041 M 505.500 164.458 C 495.554 168.088, 489.770 180.068, 493.326 189.670 C 496.164 197.332, 503.434 202.286, 511.732 202.212 C 518.570 202.150, 523.646 199.530, 527.500 194.075 C 530.116 190.371, 530.500 188.966, 530.500 183.091 C 530.500 177.415, 530.067 175.699, 527.749 172.197 C 523.027 165.061, 513.206 161.645, 505.500 164.458 M 226.144 323.277 C 219.957 324.531, 213.689 330.960, 212.069 337.714 C 209.106 350.063, 218.484 362.040, 231.066 361.978 C 244.038 361.914, 253.409 349.662, 250.045 337.166 C 248.904 332.929, 244.275 326.753, 240.877 324.934 C 237.560 323.159, 230.592 322.375, 226.144 323.277 M 758 379.860 C 742.055 388.819, 646.894 441.663, 629 451.495 C 602.174 466.235, 530.282 506.413, 529.250 507.241 C 528.259 508.037, 528 541.644, 528 669.229 C 528 813.361, 528.160 830.152, 529.531 829.627 C 531.853 828.735, 755.765 694.434, 757.346 692.984 C 757.811 692.557, 756.368 689.184, 754.138 685.487 C 740.519 662.906, 747.922 634.664, 771.232 620.276 C 777 616.716, 777 616.716, 777 493.358 C 777 425.511, 776.663 370.006, 776.250 370.014 C 775.837 370.021, 767.625 374.452, 758 379.860 M 786.500 643.659 C 781.209 646.443, 777.976 650.275, 776.430 655.593 C 771.540 672.415, 788.044 686.482, 803.750 678.879 C 811.399 675.176, 815.371 666.121, 813.567 656.503 C 812.753 652.167, 806.816 645.245, 802.282 643.347 C 797.994 641.552, 790.212 641.706, 786.500 643.659" stroke="none" fill="#fbfbfb" fill-rule="evenodd"/></svg>